<svg width="100" height="100" viewBox="0 0 100 100" fill="none" xmlns="http://www.w3.org/2000/svg">
<g clip-path="url(#clip0_10_32)">
<rect width="100" height="100" rx="24" fill="white"/>
<path d="M26.47 81V18H55.54C59.8 18 63.61 18.87 66.97 20.61C70.33 22.35 72.94 24.72 74.8 27.72C76.72 30.72 77.68 34.17 77.68 38.07C77.68 42.27 76.72 45.99 74.8 49.23C72.94 52.47 70.33 55.02 66.97 56.88C63.61 58.68 59.8 59.58 55.54 59.58H43.21V81H26.47ZM60.22 81L44.2 52.56L62.47 50.31L80.29 81H60.22ZM43.21 46.8H53.11C54.67 46.8 55.96 46.5 56.98 45.9C58.06 45.24 58.87 44.37 59.41 43.29C60.01 42.15 60.31 40.83 60.31 39.33C60.31 37.89 60.01 36.66 59.41 35.64C58.81 34.56 57.91 33.75 56.71 33.21C55.57 32.61 54.13 32.31 52.39 32.31H43.21V46.8Z" fill="#FE3900"/>
</g>
<defs>
<clipPath id="clip0_10_32">
<rect width="100" height="100" fill="white"/>
</clipPath>
</defs>
</svg>
