<svg width="1480" height="170" viewBox="0 0 1480 170" fill="none" xmlns="http://www.w3.org/2000/svg">
<path d="M78.0412 136V40.8H101.161V136H78.0412ZM19.0172 136V40.8H42.1372V136H19.0172ZM27.9932 98.872L28.1292 78.2H90.2812V98.872H27.9932ZM177.498 137.36C169.519 137.36 162.583 135.773 156.69 132.6C150.796 129.336 146.218 124.939 142.954 119.408C139.69 113.787 138.058 107.395 138.058 100.232C138.058 94.7013 138.964 89.624 140.778 85C142.591 80.376 145.13 76.3867 148.394 73.032C151.658 69.5867 155.511 66.9573 159.954 65.144C164.487 63.24 169.428 62.288 174.778 62.288C179.855 62.288 184.479 63.1947 188.65 65.008C192.911 66.8213 196.583 69.36 199.666 72.624C202.748 75.888 205.106 79.7413 206.738 84.184C208.37 88.6267 209.095 93.4773 208.914 98.736L208.778 104.584H151.25L148.122 92.344H191.098L188.786 94.928V92.208C188.604 89.9413 187.879 87.9467 186.61 86.224C185.431 84.4107 183.844 83.0053 181.85 82.008C179.855 81.0107 177.588 80.512 175.05 80.512C171.514 80.512 168.476 81.2373 165.938 82.688C163.49 84.048 161.631 86.088 160.362 88.808C159.092 91.4373 158.458 94.7013 158.458 98.6C158.458 102.589 159.274 106.08 160.906 109.072C162.628 111.973 165.076 114.24 168.25 115.872C171.514 117.504 175.367 118.32 179.81 118.32C182.892 118.32 185.612 117.867 187.97 116.96C190.418 116.053 193.047 114.512 195.858 112.336L206.058 126.752C203.247 129.2 200.255 131.195 197.082 132.736C193.908 134.277 190.644 135.411 187.29 136.136C184.026 136.952 180.762 137.36 177.498 137.36ZM264.121 114.784L256.097 98.464L289.825 63.784H318.521L264.121 114.784ZM243.177 136V35.36H264.937V136H243.177ZM292.137 136L266.705 103.088L282.073 91.12L317.841 136H292.137ZM380.063 137.36C372.085 137.36 365.149 135.773 359.255 132.6C353.362 129.336 348.783 124.939 345.519 119.408C342.255 113.787 340.623 107.395 340.623 100.232C340.623 94.7013 341.53 89.624 343.343 85C345.157 80.376 347.695 76.3867 350.959 73.032C354.223 69.5867 358.077 66.9573 362.519 65.144C367.053 63.24 371.994 62.288 377.343 62.288C382.421 62.288 387.045 63.1947 391.215 65.008C395.477 66.8213 399.149 69.36 402.231 72.624C405.314 75.888 407.671 79.7413 409.303 84.184C410.935 88.6267 411.661 93.4773 411.479 98.736L411.343 104.584H353.815L350.687 92.344H393.663L391.351 94.928V92.208C391.17 89.9413 390.445 87.9467 389.175 86.224C387.997 84.4107 386.41 83.0053 384.415 82.008C382.421 81.0107 380.154 80.512 377.615 80.512C374.079 80.512 371.042 81.2373 368.503 82.688C366.055 84.048 364.197 86.088 362.927 88.808C361.658 91.4373 361.023 94.7013 361.023 98.6C361.023 102.589 361.839 106.08 363.471 109.072C365.194 111.973 367.642 114.24 370.815 115.872C374.079 117.504 377.933 118.32 382.375 118.32C385.458 118.32 388.178 117.867 390.535 116.96C392.983 116.053 395.613 114.512 398.423 112.336L408.623 126.752C405.813 129.2 402.821 131.195 399.647 132.736C396.474 134.277 393.21 135.411 389.855 136.136C386.591 136.952 383.327 137.36 380.063 137.36ZM445.743 136V63.784H466.415L467.367 87.312L463.287 82.824C464.375 78.9253 466.143 75.4347 468.591 72.352C471.129 69.2693 474.076 66.8213 477.431 65.008C480.785 63.1947 484.367 62.288 488.175 62.288C489.807 62.288 491.303 62.424 492.663 62.696C494.113 62.968 495.428 63.2853 496.607 63.648L490.623 87.72C489.625 87.0853 488.265 86.5867 486.543 86.224C484.911 85.7707 483.188 85.544 481.375 85.544C479.38 85.544 477.521 85.9067 475.799 86.632C474.076 87.2667 472.625 88.2187 471.447 89.488C470.268 90.7573 469.316 92.2533 468.591 93.976C467.956 95.6987 467.639 97.648 467.639 99.824V136H445.743ZM589.369 136V40.8H612.489V136H589.369ZM530.345 136V40.8H553.465V136H530.345ZM539.321 98.872L539.457 78.2H601.609V98.872H539.321ZM679.034 137.496C673.684 137.496 669.106 136.363 665.298 134.096C661.58 131.739 658.679 128.384 656.594 124.032C654.599 119.68 653.602 114.467 653.602 108.392V63.784H675.498V105.4C675.498 108.301 675.951 110.795 676.858 112.88C677.764 114.965 679.124 116.597 680.938 117.776C682.751 118.864 684.927 119.408 687.466 119.408C689.37 119.408 691.092 119.091 692.634 118.456C694.266 117.821 695.626 116.96 696.714 115.872C697.892 114.693 698.799 113.379 699.434 111.928C700.068 110.387 700.386 108.709 700.386 106.896V63.784H722.282V136H701.746L700.794 121.176L704.874 119.544C703.786 122.989 701.972 126.072 699.434 128.792C696.895 131.421 693.858 133.552 690.322 135.184C686.786 136.725 683.023 137.496 679.034 137.496ZM761.939 136V63.784H782.611L783.291 76.84L780.435 76.976C781.523 74.6187 782.883 72.5333 784.515 70.72C786.238 68.9067 788.142 67.4107 790.227 66.232C792.403 64.9627 794.625 64.0107 796.891 63.376C799.249 62.7413 801.606 62.424 803.963 62.424C807.499 62.424 810.718 62.968 813.619 64.056C816.521 65.144 819.059 66.912 821.236 69.36C823.411 71.7173 825.134 74.936 826.403 79.016L823.004 78.744L824.091 76.568C825.27 74.392 826.766 72.4427 828.579 70.72C830.483 68.9067 832.569 67.4107 834.835 66.232C837.102 64.9627 839.46 64.0107 841.908 63.376C844.356 62.7413 846.713 62.424 848.979 62.424C854.692 62.424 859.452 63.5573 863.26 65.824C867.068 68 869.924 71.3093 871.827 75.752C873.822 80.1947 874.819 85.5893 874.819 91.936V136H852.923V93.704C852.923 90.8027 852.515 88.4 851.699 86.496C850.883 84.592 849.659 83.1867 848.027 82.28C846.486 81.2827 844.537 80.784 842.179 80.784C840.276 80.784 838.508 81.1013 836.876 81.736C835.334 82.3707 833.974 83.232 832.795 84.32C831.708 85.408 830.846 86.6773 830.211 88.128C829.577 89.5787 829.259 91.2107 829.259 93.024V136H807.363V93.568C807.363 90.848 806.955 88.536 806.139 86.632C805.323 84.728 804.099 83.2773 802.467 82.28C800.835 81.2827 798.931 80.784 796.755 80.784C794.851 80.784 793.083 81.1013 791.451 81.736C789.91 82.3707 788.55 83.232 787.371 84.32C786.283 85.408 785.422 86.6773 784.787 88.128C784.153 89.5787 783.835 91.1653 783.835 92.888V136H761.939ZM947.296 137.36C939.77 137.36 933.061 135.728 927.168 132.464C921.365 129.2 916.741 124.757 913.296 119.136C909.941 113.515 908.264 107.077 908.264 99.824C908.264 92.5707 909.941 86.1333 913.296 80.512C916.741 74.8907 921.365 70.448 927.168 67.184C933.061 63.92 939.77 62.288 947.296 62.288C954.821 62.288 961.485 63.92 967.288 67.184C973.181 70.448 977.805 74.8907 981.16 80.512C984.515 86.1333 986.192 92.5707 986.192 99.824C986.192 107.077 984.515 113.515 981.16 119.136C977.805 124.757 973.181 129.2 967.288 132.464C961.485 135.728 954.821 137.36 947.296 137.36ZM947.296 118.592C950.56 118.592 953.461 117.776 956 116.144C958.539 114.512 960.533 112.291 961.984 109.48C963.435 106.669 964.115 103.451 964.024 99.824C964.115 96.1973 963.435 92.9787 961.984 90.168C960.533 87.2667 958.539 85 956 83.368C953.461 81.736 950.56 80.92 947.296 80.92C944.032 80.92 941.085 81.736 938.456 83.368C935.917 85 933.923 87.2667 932.472 90.168C931.021 92.9787 930.341 96.1973 930.432 99.824C930.341 103.451 931.021 106.669 932.472 109.48C933.923 112.291 935.917 114.512 938.456 116.144C941.085 117.776 944.032 118.592 947.296 118.592ZM1020.82 136V63.784H1041.49L1042.44 87.312L1038.36 82.824C1039.45 78.9253 1041.22 75.4347 1043.67 72.352C1046.21 69.2693 1049.15 66.8213 1052.51 65.008C1055.86 63.1947 1059.44 62.288 1063.25 62.288C1064.88 62.288 1066.38 62.424 1067.74 62.696C1069.19 62.968 1070.51 63.2853 1071.68 63.648L1065.7 87.72C1064.7 87.0853 1063.34 86.5867 1061.62 86.224C1059.99 85.7707 1058.27 85.544 1056.45 85.544C1054.46 85.544 1052.6 85.9067 1050.88 86.632C1049.15 87.2667 1047.7 88.2187 1046.52 89.488C1045.35 90.7573 1044.39 92.2533 1043.67 93.976C1043.03 95.6987 1042.72 97.648 1042.72 99.824V136H1020.82ZM1104.34 136V63.784H1126.1V136H1104.34ZM1115.22 49.504C1111.14 49.504 1107.92 48.552 1105.56 46.648C1103.29 44.6533 1102.16 41.8427 1102.16 38.216C1102.16 34.952 1103.34 32.2773 1105.7 30.192C1108.05 28.1067 1111.23 27.064 1115.22 27.064C1119.3 27.064 1122.47 28.0613 1124.74 30.056C1127 31.96 1128.14 34.68 1128.14 38.216C1128.14 41.5707 1126.96 44.2907 1124.6 46.376C1122.33 48.4613 1119.2 49.504 1115.22 49.504ZM1191.29 137.36C1184.21 137.36 1177.96 136.227 1172.52 133.96C1167.17 131.693 1162.91 128.656 1159.73 124.848L1172.93 113.424C1175.74 116.235 1178.91 118.32 1182.45 119.68C1185.98 120.949 1189.34 121.584 1192.51 121.584C1193.78 121.584 1194.91 121.448 1195.91 121.176C1196.91 120.904 1197.72 120.541 1198.36 120.088C1199.08 119.544 1199.63 118.955 1199.99 118.32C1200.35 117.595 1200.53 116.779 1200.53 115.872C1200.53 114.059 1199.72 112.653 1198.09 111.656C1197.27 111.203 1195.91 110.659 1194.01 110.024C1192.1 109.389 1189.65 108.664 1186.66 107.848C1182.4 106.76 1178.68 105.491 1175.51 104.04C1172.43 102.499 1169.89 100.731 1167.89 98.736C1166.08 96.832 1164.67 94.7467 1163.68 92.48C1162.68 90.1227 1162.18 87.4933 1162.18 84.592C1162.18 81.2373 1162.95 78.2 1164.49 75.48C1166.13 72.76 1168.26 70.4027 1170.89 68.408C1173.61 66.4133 1176.69 64.9173 1180.13 63.92C1183.67 62.832 1187.3 62.288 1191.01 62.288C1195 62.288 1198.81 62.7413 1202.44 63.648C1206.06 64.5547 1209.42 65.824 1212.5 67.456C1215.67 69.088 1218.49 71.0373 1220.93 73.304L1209.51 86.088C1207.88 84.5467 1206.02 83.1867 1203.93 82.008C1201.94 80.7387 1199.85 79.7413 1197.68 79.016C1195.5 78.2907 1193.51 77.928 1191.69 77.928C1190.33 77.928 1189.11 78.064 1188.02 78.336C1187.02 78.5173 1186.16 78.88 1185.44 79.424C1184.71 79.8773 1184.17 80.4667 1183.81 81.192C1183.44 81.8267 1183.26 82.5973 1183.26 83.504C1183.26 84.4107 1183.49 85.272 1183.94 86.088C1184.49 86.904 1185.21 87.584 1186.12 88.128C1187.02 88.672 1188.47 89.3067 1190.47 90.032C1192.46 90.6667 1195.18 91.4827 1198.63 92.48C1202.89 93.6587 1206.56 94.9733 1209.65 96.424C1212.73 97.8747 1215.18 99.5973 1216.99 101.592C1218.44 103.133 1219.53 104.947 1220.25 107.032C1220.98 109.027 1221.34 111.203 1221.34 113.56C1221.34 118.184 1220.03 122.309 1217.4 125.936C1214.86 129.472 1211.32 132.283 1206.79 134.368C1202.26 136.363 1197.09 137.36 1191.29 137.36ZM1262.43 137.496C1258.71 137.496 1255.81 136.453 1253.73 134.368C1251.73 132.283 1250.73 129.291 1250.73 125.392C1250.73 121.765 1251.82 118.819 1254 116.552C1256.17 114.285 1258.98 113.152 1262.43 113.152C1266.15 113.152 1269.05 114.24 1271.13 116.416C1273.22 118.501 1274.26 121.493 1274.26 125.392C1274.26 128.928 1273.17 131.829 1271 134.096C1268.82 136.363 1265.97 137.496 1262.43 137.496Z" fill="white"/>
</svg>
